<svg width="32" height="32" viewBox="0 0 32 32" fill="none" xmlns="http://www.w3.org/2000/svg">
<path d="M0 16C0 24.8368 7.1632 32 16 32C24.8368 32 32 24.8368 32 16C32 7.1632 24.8368 0 16 0C7.1632 0 0 7.1632 0 16Z" fill="#28A17C"/>
<path fill-rule="evenodd" clip-rule="evenodd" d="M22.708 8V11.2288H17.7656V13.3408C21.768 13.5208 24.7776 14.3008 24.7776 15.2352C24.7776 16.1696 21.768 16.9496 17.7656 17.1304V23.9024H14.244V17.1312C10.2256 16.9536 7.20001 16.172 7.20001 15.2352C7.20001 14.2984 10.2256 13.5168 14.244 13.3392V11.2296H9.30001V8H22.708ZM17.7656 16.3217C20.9248 16.1777 23.264 15.6609 23.264 15.0449C23.264 14.4281 20.924 13.9113 17.7624 13.7673V15.7193C16.5893 15.7805 15.4139 15.781 14.2408 15.7209V13.7617C11.0656 13.9057 8.71039 14.4225 8.71039 15.0417C8.71039 15.6609 11.0648 16.1801 14.2408 16.3217L14.4496 16.3297H14.452C14.6624 16.3385 14.876 16.3449 15.092 16.3497H15.112L15.2952 16.3529H15.348L15.5008 16.3553H16.4792L16.6336 16.3529H16.6888L16.8848 16.3489H16.8944C17.04 16.3457 17.184 16.3417 17.3264 16.3369H17.3464L17.5384 16.3297H17.5608L17.7656 16.3217Z" fill="white"/>
<circle cx="25" cy="25" r="7" fill="#F6F6F6"/>
<path d="M22.3232 22.5222L21.4195 21.6185C21.3754 21.5744 21.3 21.6057 21.3 21.668V24.9903C21.3 25.8846 21.6397 26.7789 22.3232 27.4584C23.6695 28.8048 25.8466 28.8212 27.2131 27.5076C27.241 27.4808 27.2411 27.4363 27.2138 27.4089L22.3232 22.5222ZM27.5718 27.4584L28.4755 28.3621C28.5196 28.4062 28.595 28.375 28.595 28.3126V24.9903C28.595 24.096 28.2552 23.2017 27.5718 22.5222C26.2255 21.1759 24.0484 21.1595 22.6819 22.473C22.654 22.4998 22.6539 22.5444 22.6812 22.5717L27.5718 27.4584Z" fill="#CBAFFA"/>
<path fill-rule="evenodd" clip-rule="evenodd" d="M21.44 21.837V24.9903C21.44 25.8492 21.7662 26.7072 22.4219 27.3591L22.4222 27.3594C23.6972 28.6345 25.7488 28.6669 27.0632 27.4564L21.44 21.837ZM27.4731 22.6215L27.4728 22.6212C26.1977 21.3461 24.1462 21.3138 22.8317 22.5242L28.455 28.1436V24.9903C28.455 24.1314 28.1288 23.2734 27.4731 22.6215ZM27.2138 27.4089C27.2411 27.4363 27.241 27.4808 27.2131 27.5076C25.8466 28.8212 23.6695 28.8048 22.3232 27.4584C21.6397 26.7789 21.3 25.8846 21.3 24.9903V21.668C21.3 21.6057 21.3754 21.5744 21.4195 21.6185L27.2138 27.4089ZM28.4755 28.3621L22.6812 22.5717C22.6539 22.5444 22.654 22.4998 22.6819 22.473C24.0484 21.1595 26.2255 21.1759 27.5718 22.5222C28.2552 23.2017 28.595 24.096 28.595 24.9903V28.3126C28.595 28.375 28.5196 28.4062 28.4755 28.3621Z" fill="#381DB3"/>
<path d="M28.4756 28.3621L27.5719 27.4584L22.6813 22.5717C22.6539 22.5444 22.654 22.4998 22.6819 22.473C24.0485 21.1595 26.2255 21.1759 27.5719 22.5222C28.2553 23.2017 28.5951 24.096 28.5951 24.9903V28.3126C28.5951 28.375 28.5197 28.4062 28.4756 28.3621Z" fill="#A4FCF5"/>
<path fill-rule="evenodd" clip-rule="evenodd" d="M27.6709 27.3594L28.4551 28.1436V24.9903C28.4551 24.1314 28.1289 23.2734 27.4732 22.6215C26.1981 21.3464 24.1462 21.3138 22.8318 22.5242L27.6709 27.3594ZM28.4756 28.3621C28.5197 28.4062 28.5951 28.375 28.5951 28.3126V24.9903C28.5951 24.096 28.2553 23.2017 27.5719 22.5222C26.2255 21.1759 24.0485 21.1595 22.6819 22.473C22.654 22.4998 22.6539 22.5444 22.6813 22.5717L28.4756 28.3621Z" fill="#381DB3"/>
</svg>
