<svg width="32" height="32" viewBox="0 0 32 32" fill="none" xmlns="http://www.w3.org/2000/svg">
<path d="M0 16C0 24.8366 7.16344 32 16 32C24.8366 32 32 24.8366 32 16C32 7.16344 24.8366 0 16 0C7.16344 0 0 7.16344 0 16Z" fill="#2775C9"/>
<path fill-rule="evenodd" clip-rule="evenodd" d="M4 16.0001C4 10.7051 7.456 6.21409 12.244 4.64409C12.4193 4.58641 12.6116 4.61624 12.7612 4.72429C12.9109 4.83234 12.9996 5.00554 13 5.19009V5.52909C13 6.04409 12.687 6.50909 12.21 6.70209C8.525 8.19409 5.928 11.7951 5.928 16.0001C5.928 20.2031 8.522 23.8031 12.203 25.2961C12.684 25.4911 12.999 25.9581 12.999 26.4771V26.7591C12.9991 26.9558 12.9046 27.1405 12.7452 27.2556C12.5857 27.3707 12.3806 27.4021 12.194 27.3401C7.432 25.7551 4 21.2771 4 16.0001ZM15.04 10.0591V9.0601C15.04 8.5299 15.4698 8.1001 16 8.1001C16.5302 8.1001 16.96 8.5299 16.96 9.0601V10.0561C18.697 10.3171 19.888 11.3051 20.206 12.7121C20.244 12.8802 20.2035 13.0564 20.0959 13.1911C19.9883 13.3257 19.8254 13.4041 19.653 13.4041H19.134C18.714 13.4041 18.331 13.1611 18.153 12.7811C17.821 12.0771 17.036 11.6711 15.991 11.6711C14.683 11.6711 13.801 12.3131 13.801 13.2751C13.801 14.0451 14.387 14.4951 15.806 14.8311L17.138 15.1361C19.488 15.6741 20.482 16.6441 20.482 18.3691C20.482 20.2791 19.148 21.5721 16.96 21.8771V23.0331C16.96 23.3761 16.777 23.693 16.48 23.8645C16.183 24.036 15.817 24.036 15.52 23.8645C15.223 23.693 15.04 23.3761 15.04 23.0331V21.8951C13.102 21.6611 11.792 20.6351 11.485 19.0651C11.4579 18.9253 11.4946 18.7807 11.5851 18.6708C11.6757 18.5609 11.8106 18.4972 11.953 18.4971H12.741C13.098 18.4971 13.423 18.7021 13.576 19.0251C13.939 19.7881 14.868 20.2611 16.031 20.2611C17.427 20.2611 18.397 19.5711 18.397 18.6091C18.397 17.7751 17.803 17.2941 16.344 16.9491L14.844 16.5961C12.71 16.1061 11.7 15.0801 11.7 13.4281C11.7 11.6481 13.043 10.3691 15.04 10.0591ZM19.84 27.3292C24.584 25.7342 28 21.2652 28 16.0002C28 10.7392 24.587 6.27124 19.847 4.67424C19.6512 4.60825 19.4355 4.64057 19.2676 4.76109C19.0997 4.8816 19.0001 5.07557 19 5.28224V5.48824C19.0002 6.02711 19.3262 6.51238 19.825 6.71624C23.491 8.21624 26.071 11.8082 26.071 16.0002C26.071 20.1962 23.485 23.7912 19.814 25.2882C19.322 25.4902 19 25.9682 19 26.5002V26.7262C18.9998 26.9313 19.0985 27.1239 19.2651 27.2435C19.4317 27.3631 19.6458 27.395 19.84 27.3292Z" fill="white"/>
<circle cx="25" cy="25" r="7" fill="#F6F6F6"/>
<path d="M22.3232 22.5222L21.4195 21.6185C21.3754 21.5744 21.3 21.6057 21.3 21.668V24.9903C21.3 25.8846 21.6397 26.7789 22.3232 27.4584C23.6695 28.8048 25.8466 28.8212 27.2131 27.5076C27.241 27.4808 27.2411 27.4363 27.2138 27.4089L22.3232 22.5222ZM27.5718 27.4584L28.4755 28.3621C28.5196 28.4062 28.595 28.375 28.595 28.3126V24.9903C28.595 24.096 28.2552 23.2017 27.5718 22.5222C26.2255 21.1759 24.0484 21.1595 22.6819 22.473C22.654 22.4998 22.6539 22.5444 22.6812 22.5717L27.5718 27.4584Z" fill="#CBAFFA"/>
<path fill-rule="evenodd" clip-rule="evenodd" d="M21.44 21.837V24.9903C21.44 25.8492 21.7662 26.7072 22.4219 27.3591L22.4222 27.3594C23.6972 28.6345 25.7488 28.6669 27.0632 27.4564L21.44 21.837ZM27.4731 22.6215L27.4728 22.6212C26.1977 21.3461 24.1462 21.3138 22.8317 22.5242L28.455 28.1436V24.9903C28.455 24.1314 28.1288 23.2734 27.4731 22.6215ZM27.2138 27.4089C27.2411 27.4363 27.241 27.4808 27.2131 27.5076C25.8466 28.8212 23.6695 28.8048 22.3232 27.4584C21.6397 26.7789 21.3 25.8846 21.3 24.9903V21.668C21.3 21.6057 21.3754 21.5744 21.4195 21.6185L27.2138 27.4089ZM28.4755 28.3621L22.6812 22.5717C22.6539 22.5444 22.654 22.4998 22.6819 22.473C24.0484 21.1595 26.2255 21.1759 27.5718 22.5222C28.2552 23.2017 28.595 24.096 28.595 24.9903V28.3126C28.595 28.375 28.5196 28.4062 28.4755 28.3621Z" fill="#381DB3"/>
<path d="M28.4756 28.3621L27.5719 27.4584L22.6813 22.5717C22.6539 22.5444 22.654 22.4998 22.6819 22.473C24.0485 21.1595 26.2255 21.1759 27.5719 22.5222C28.2553 23.2017 28.5951 24.096 28.5951 24.9903V28.3126C28.5951 28.375 28.5197 28.4062 28.4756 28.3621Z" fill="#A4FCF5"/>
<path fill-rule="evenodd" clip-rule="evenodd" d="M27.6709 27.3594L28.4551 28.1436V24.9903C28.4551 24.1314 28.1289 23.2734 27.4732 22.6215C26.1981 21.3464 24.1462 21.3138 22.8318 22.5242L27.6709 27.3594ZM28.4756 28.3621C28.5197 28.4062 28.5951 28.375 28.5951 28.3126V24.9903C28.5951 24.096 28.2553 23.2017 27.5719 22.5222C26.2255 21.1759 24.0485 21.1595 22.6819 22.473C22.654 22.4998 22.6539 22.5444 22.6813 22.5717L28.4756 28.3621Z" fill="#381DB3"/>
</svg>
