<svg width="32" height="32" viewBox="0 0 32 32" fill="none" xmlns="http://www.w3.org/2000/svg">
<path d="M15.994 0C7.16077 0 0 7.16077 0 15.994C0 24.8272 7.16077 31.988 15.994 31.988C24.8272 31.988 31.988 24.8272 31.988 15.994C31.988 7.16077 24.8272 0 15.994 0Z" fill="white"/>
<path fill-rule="evenodd" clip-rule="evenodd" d="M22.4418 15.8007L16.1968 5.41211V13.0649L22.4418 15.8007ZM15.7866 13.0647L9.62811 15.7621L15.7866 5.41504V13.0647ZM9.42322 16.3001L15.7866 20.0276V13.5127L9.42322 16.3001ZM9.466 17.6372L15.7867 26.5781V21.3378L9.466 17.6372ZM16.1968 26.5781V21.3378L22.5174 17.6372L16.1968 26.5781ZM16.1968 13.5132V20.0281L22.5649 16.3026L16.1968 13.5132Z" fill="#080808"/>
<circle cx="25" cy="25" r="7" fill="#F6F6F6"/>
<path d="M22.3232 22.5222L21.4195 21.6185C21.3754 21.5744 21.3 21.6057 21.3 21.668V24.9903C21.3 25.8846 21.6397 26.7789 22.3232 27.4584C23.6695 28.8048 25.8466 28.8212 27.2131 27.5076C27.241 27.4808 27.2411 27.4363 27.2138 27.4089L22.3232 22.5222ZM27.5718 27.4584L28.4755 28.3621C28.5196 28.4062 28.595 28.375 28.595 28.3126V24.9903C28.595 24.096 28.2552 23.2017 27.5718 22.5222C26.2255 21.1759 24.0484 21.1595 22.6819 22.473C22.654 22.4998 22.6539 22.5444 22.6812 22.5717L27.5718 27.4584Z" fill="#CBAFFA"/>
<path fill-rule="evenodd" clip-rule="evenodd" d="M21.44 21.837V24.9903C21.44 25.8492 21.7662 26.7072 22.4219 27.3591L22.4222 27.3594C23.6972 28.6345 25.7488 28.6669 27.0632 27.4564L21.44 21.837ZM27.4731 22.6215L27.4728 22.6212C26.1977 21.3461 24.1462 21.3138 22.8317 22.5242L28.455 28.1436V24.9903C28.455 24.1314 28.1288 23.2734 27.4731 22.6215ZM27.2138 27.4089C27.2411 27.4363 27.241 27.4808 27.2131 27.5076C25.8466 28.8212 23.6695 28.8048 22.3232 27.4584C21.6397 26.7789 21.3 25.8846 21.3 24.9903V21.668C21.3 21.6057 21.3754 21.5744 21.4195 21.6185L27.2138 27.4089ZM28.4755 28.3621L22.6812 22.5717C22.6539 22.5444 22.654 22.4998 22.6819 22.473C24.0484 21.1595 26.2255 21.1759 27.5718 22.5222C28.2552 23.2017 28.595 24.096 28.595 24.9903V28.3126C28.595 28.375 28.5196 28.4062 28.4755 28.3621Z" fill="#381DB3"/>
<path d="M28.4756 28.3621L27.5719 27.4584L22.6813 22.5717C22.6539 22.5444 22.654 22.4998 22.6819 22.473C24.0485 21.1595 26.2255 21.1759 27.5719 22.5222C28.2553 23.2017 28.5951 24.096 28.5951 24.9903V28.3126C28.5951 28.375 28.5197 28.4062 28.4756 28.3621Z" fill="#A4FCF5"/>
<path fill-rule="evenodd" clip-rule="evenodd" d="M27.6709 27.3594L28.4551 28.1436V24.9903C28.4551 24.1314 28.1289 23.2734 27.4732 22.6215C26.1981 21.3464 24.1462 21.3138 22.8318 22.5242L27.6709 27.3594ZM28.4756 28.3621C28.5197 28.4062 28.5951 28.375 28.5951 28.3126V24.9903C28.5951 24.096 28.2553 23.2017 27.5719 22.5222C26.2255 21.1759 24.0485 21.1595 22.6819 22.473C22.654 22.4998 22.6539 22.5444 22.6813 22.5717L28.4756 28.3621Z" fill="#381DB3"/>
</svg>
