<svg width="32" height="32" viewBox="0 0 32 32" fill="none" xmlns="http://www.w3.org/2000/svg">
<path d="M16 32C19.1645 32 22.2579 31.0616 24.8891 29.3035C27.5203 27.5454 29.5711 25.0466 30.7821 22.1229C31.9931 19.1993 32.3099 15.9823 31.6926 12.8786C31.0752 9.77488 29.5514 6.92395 27.3137 4.6863C25.0761 2.44866 22.2251 0.924807 19.1214 0.307442C16.0177 -0.30992 12.8007 0.00693166 9.87707 1.21793C6.95343 2.42894 4.4546 4.47969 2.69649 7.11088C0.938383 9.74206 0 12.8355 0 16C0 20.2435 1.68571 24.3131 4.6863 27.3137C7.68688 30.3143 11.7565 32 16 32Z" fill="white"/>
<path d="M19.6457 15.3678C20.5023 14.9041 21.0382 14.0877 20.913 12.7274C20.7444 10.8685 19.2337 10.2452 17.3266 10.0677L17.3263 7.48926H15.8487L15.8483 9.9999C15.4595 9.9999 15.0632 10.008 14.6687 10.0164L14.6684 7.4896L13.1921 7.48946L13.1918 10.0672C12.8719 10.0742 12.5577 10.0808 12.2509 10.0808V10.0732L10.2128 10.0723L10.213 11.7483C10.213 11.7483 11.3042 11.7265 11.2863 11.7476C11.8845 11.7481 12.0799 12.1172 12.1361 12.4358L12.1365 15.3732V19.4992C12.1102 19.6992 11.9993 20.0187 11.581 20.0192C11.6 20.037 10.5061 20.0191 10.5061 20.0191L10.213 21.8932H12.1356C12.4939 21.8936 12.8458 21.8995 13.1912 21.9025L13.1924 24.5101L14.6684 24.5105L14.668 21.9302C15.074 21.9391 15.4659 21.9429 15.8488 21.9423L15.8483 24.5105H17.3259L17.3267 21.9073C19.8105 21.7557 21.5492 21.091 21.7654 18.6129C21.9396 16.6178 21.0558 15.7273 19.6457 15.3678ZM14.704 11.8614C15.5373 11.8614 18.1582 11.5795 18.1586 13.429C18.1582 15.2021 15.5381 14.995 14.704 14.995V11.8614ZM14.7033 20.032L14.704 16.5769C15.7052 16.5766 18.8457 16.2708 18.8461 18.3037C18.8465 20.2531 15.7052 20.0312 14.7033 20.032Z" fill="#F6941A"/>
<path fill-rule="evenodd" clip-rule="evenodd" d="M16 4.4043C9.59589 4.4043 4.4043 9.59589 4.4043 16C4.4043 22.4042 9.59589 27.5958 16 27.5958C22.4042 27.5958 27.5958 22.4042 27.5958 16C27.5958 9.59589 22.4042 4.4043 16 4.4043ZM2.4043 16C2.4043 8.49132 8.49132 2.4043 16 2.4043C23.5088 2.4043 29.5958 8.49132 29.5958 16C29.5958 23.5088 23.5088 29.5958 16 29.5958C8.49132 29.5958 2.4043 23.5088 2.4043 16Z" fill="#657786"/>
<path fill-rule="evenodd" clip-rule="evenodd" d="M16 1.5C7.99187 1.5 1.5 7.99187 1.5 16C1.5 24.0081 7.99187 30.5 16 30.5C24.0081 30.5 30.5 24.0081 30.5 16C30.5 7.99187 24.0081 1.5 16 1.5ZM0.5 16C0.5 7.43959 7.43959 0.5 16 0.5C24.5604 0.5 31.5 7.43959 31.5 16C31.5 24.5604 24.5604 31.5 16 31.5C7.43959 31.5 0.5 24.5604 0.5 16Z" fill="#283947"/>
<path fill-rule="evenodd" clip-rule="evenodd" d="M6.95712 5.54297L10.7071 9.29297L9.29291 10.7072L5.54291 6.95718L6.95712 5.54297ZM27.0348 7.49102L23.695 10.7191L22.305 9.28105L25.6448 6.05296L27.0348 7.49102ZM11.7071 22.7072L7.45712 26.9572L6.04291 25.543L10.2929 21.293L11.7071 22.7072ZM22.7071 21.293L26.7071 25.293L25.2929 26.7072L21.2929 22.7072L22.7071 21.293Z" fill="white"/>
<circle cx="25" cy="25" r="7" fill="#F6F6F6"/>
<path d="M22.3232 22.5222L21.4195 21.6185C21.3754 21.5744 21.3 21.6057 21.3 21.668V24.9903C21.3 25.8846 21.6397 26.7789 22.3232 27.4584C23.6695 28.8048 25.8466 28.8212 27.2131 27.5076C27.241 27.4808 27.2411 27.4363 27.2138 27.4089L22.3232 22.5222ZM27.5718 27.4584L28.4755 28.3621C28.5196 28.4062 28.595 28.375 28.595 28.3126V24.9903C28.595 24.096 28.2552 23.2017 27.5718 22.5222C26.2255 21.1759 24.0484 21.1595 22.6819 22.473C22.654 22.4998 22.6539 22.5444 22.6812 22.5717L27.5718 27.4584Z" fill="#CBAFFA"/>
<path fill-rule="evenodd" clip-rule="evenodd" d="M21.44 21.837V24.9903C21.44 25.8492 21.7662 26.7072 22.4219 27.3591L22.4222 27.3594C23.6972 28.6345 25.7488 28.6669 27.0632 27.4564L21.44 21.837ZM27.4731 22.6215L27.4728 22.6212C26.1977 21.3461 24.1462 21.3138 22.8317 22.5242L28.455 28.1436V24.9903C28.455 24.1314 28.1288 23.2734 27.4731 22.6215ZM27.2138 27.4089C27.2411 27.4363 27.241 27.4808 27.2131 27.5076C25.8466 28.8212 23.6695 28.8048 22.3232 27.4584C21.6397 26.7789 21.3 25.8846 21.3 24.9903V21.668C21.3 21.6057 21.3754 21.5744 21.4195 21.6185L27.2138 27.4089ZM28.4755 28.3621L22.6812 22.5717C22.6539 22.5444 22.654 22.4998 22.6819 22.473C24.0484 21.1595 26.2255 21.1759 27.5718 22.5222C28.2552 23.2017 28.595 24.096 28.595 24.9903V28.3126C28.595 28.375 28.5196 28.4062 28.4755 28.3621Z" fill="#381DB3"/>
<path d="M28.4756 28.3621L27.5719 27.4584L22.6813 22.5717C22.6539 22.5444 22.654 22.4998 22.6819 22.473C24.0485 21.1595 26.2255 21.1759 27.5719 22.5222C28.2553 23.2017 28.5951 24.096 28.5951 24.9903V28.3126C28.5951 28.375 28.5197 28.4062 28.4756 28.3621Z" fill="#A4FCF5"/>
<path fill-rule="evenodd" clip-rule="evenodd" d="M27.6709 27.3594L28.4551 28.1436V24.9903C28.4551 24.1314 28.1289 23.2734 27.4732 22.6215C26.1981 21.3464 24.1462 21.3138 22.8318 22.5242L27.6709 27.3594ZM28.4756 28.3621C28.5197 28.4062 28.5951 28.375 28.5951 28.3126V24.9903C28.5951 24.096 28.2553 23.2017 27.5719 22.5222C26.2255 21.1759 24.0485 21.1595 22.6819 22.473C22.654 22.4998 22.6539 22.5444 22.6813 22.5717L28.4756 28.3621Z" fill="#381DB3"/>
</svg>
